<?xml version="1.0" standalone="no"?><!DOCTYPE svg PUBLIC "-//W3C//DTD SVG 1.1//EN" "http://www.w3.org/Graphics/SVG/1.1/DTD/svg11.dtd"><svg t="1770174230412" class="icon" viewBox="0 0 1027 1024" version="1.1" xmlns="http://www.w3.org/2000/svg" p-id="12266" xmlns:xlink="http://www.w3.org/1999/xlink" width="200.5859375" height="200"><path d="M494.053382 643.541174l0.215555 0.161667 135.261124-135.261125a215.555577 215.555577 0 1 1-66.391117-86.060564L465.815601 519.758384a80.833341 80.833341 0 1 0 28.237781 123.78279z m228.812244-380.617259v-110.472233L875.317308 0v152.397793h152.397792l-152.397792 152.451681H757.138963l-280.006694 280.060583a26.944447 26.944447 0 0 1-38.153337-38.153337l283.886694-283.832805z m-6.682223 6.466667l-114.675566 114.675567a269.444471 269.444471 0 1 0 68.438895 83.958897L787.693966 350.277812a431.111153 431.111153 0 1 1-71.456674-80.941119z" fill="#444444" p-id="12267"></path></svg>